
<svg
  xmlns="http://www.w3.org/2000/svg"
  viewBox="0 0 512 512"
  width="24"
  height="24"
  fill="#fff"
>
<g transform="scale(1,-1) translate(0,-512)">
  <path d="M182.5 499.3c-9.4-4.9-11.4-9.8-11.5-27v-13.2h-24.2c-22.8 0-24.6-.1-28.4-2.5-5.1-2.7-9-7.2-10.4-12.1-.8-2.6-1-66.1-.8-211.8l.3-208 2.5-3.7c1.4-2.1 4.3-5 6.4-6.5l3.9-2.7h135.6c74.6 0 135.7 0 137.6 0 2.4 1.6 5.3 4.9 6.8 7.6l2.6 4.9v207.6c0 185.2 0 208.1-.1 211.4-2 4.7-5 7.8-10 10.5-3.7 2.1-5.7 2.2-28.2 2.5l-24.2.3-.3 14.4c-.3 14.1-.4 14.4-3.3 18.6-1.6 2.3-5 5.3-7.4 6.6l-4.4 2.3h-70.1c-61.9 0-70.4-.2-73.1-1.7zM363 234.5v-181.5h-106.7-106.8v181.5 181.2h107 107v-181.2z"/>
  <path d="M181.9 178.7c-2.4-1.3-5.7-4.3-7.4-6.6l-3-4.3v-38.4c0-36.3 0-38.5 1.7-42.1 1-2.1 3.2-5 4.8-6.5 6.3-6 3.9-5.8 78.6-5.8h68.3l5.1 2.5c3.3 1.7 6.1 4.1 7.9 6.8l2.9 4.2v39.7 39.6l-3 4.3c-1.6 2.3-5 5.3-7.4 6.6l-4.4 2.3h-69.7l-69.7 0-4.4-2.3z"/>
  </g>
</svg>
