<svg xmlns="http://www.w3.org/2000/svg" width="24" height="24" viewBox="7.025 7.025 497.951 497.95"><linearGradient id="a" gradientUnits="userSpaceOnUse" x1="-974.482" y1="1306.773" x2="-622.378" y2="1658.877" gradientTransform="translate(1054.43 -1226.825)"><stop offset="0" stop-color="#8fbc8f"/><stop offset="1" stop-color="#8fbc8f"/></linearGradient><path d="M256 7.025C118.494 7.025 7.025 118.494 7.025 256S118.494 504.975 256 504.975 504.976 393.506 504.976 256C504.975 118.494 393.504 7.025 256 7.025zm-66.427 369.343h-54.665V199.761h54.665v176.607zM161.98 176.633c-17.853 0-32.326-14.591-32.326-32.587 0-17.998 14.475-32.588 32.326-32.588s32.324 14.59 32.324 32.588c0 17.996-14.472 32.587-32.324 32.587zm218.387 199.73h-54.662v-85.604c0-20.419-.411-46.598-28.396-46.598-28.4 0-32.747 22.198-32.747 45.066v87.136h-54.664V199.761h52.467v24.103h.747c7.3-13.847 25.126-28.396 51.684-28.396 55.306 0 65.497 36.419 65.497 83.766v112.339z" fill="url(#a)"/></svg>